<svg xmlns="http://www.w3.org/2000/svg" width="190.592" height="37.79" viewBox="0 0 190.592 37.79">
  <g id="Group_115" data-name="Group 115" transform="translate(184 -400)">
    <g id="Group_114" data-name="Group 114" transform="translate(-184 400)">
      <g id="Group_100" data-name="Group 100">
        <g id="Group_99" data-name="Group 99">
          <path id="Path_58" data-name="Path 58" d="M313.12,41.573l-1.651,2.584-1.644-6.289-9.7,15.262,1.651,6.317L309.1,47.962l5.752,21.724a2.154,2.154,0,0,0,2.083,1.606h4.082Z" transform="translate(-265.526 -33.502)" fill="#fff"/>
          <path id="Path_59" data-name="Path 59" d="M42.394,21.555,35.17,32.936,27.308,3.527l-1.68,2.749L23.987,0,0,37.79H4.487a2.154,2.154,0,0,0,1.818-1L23.4,9.865l6.9,26.317a2.153,2.153,0,0,0,1.8,1.587l-.013.021h4.487a2.154,2.154,0,0,0,1.818-1l5.153-8.115a2.153,2.153,0,0,0,.265-1.7Z" fill="#fff"/>
          <path id="Path_60" data-name="Path 60" d="M382.015,164.221l.019-.027v0Z" transform="translate(-337.974 -145.262)" fill="#fff"/>
          <path id="Path_61" data-name="Path 61" d="M395.592,218.957l0-.009-.127.213Z" transform="translate(-349.871 -193.706)" fill="#fff"/>
        </g>
      </g>
      <g id="Group_113" data-name="Group 113" transform="translate(66.773 14.633)">
        <g id="Group_101" data-name="Group 101" transform="translate(0 0.133)">
          <path id="Path_62" data-name="Path 62" d="M586.221,135.7l3.286-5.9h1.833v10.183h-1.85v-6.818l-2.609,4.855h-1.354l-2.56-4.811v6.773h-1.85V129.8h1.817Z" transform="translate(-580.895 -129.601)" fill="#fff"/>
          <path id="Path_63" data-name="Path 63" d="M589.632,138.654h-1.85a.212.212,0,0,1-.223-.2v-5.944l-2.186,4.067a.226.226,0,0,1-.2.113h-1.354a.226.226,0,0,1-.2-.113l-2.136-4.015v5.892a.212.212,0,0,1-.223.2h-1.85a.212.212,0,0,1-.223-.2V128.273a.212.212,0,0,1,.223-.2h1.817a.227.227,0,0,1,.2.11l3.087,5.545,3.087-5.545a.227.227,0,0,1,.2-.11h1.833a.212.212,0,0,1,.223.2v10.183A.212.212,0,0,1,589.632,138.654Zm-1.627-.4h1.4v-9.785h-1.473l-3.225,5.792a.235.235,0,0,1-.4,0l-3.225-5.792h-1.456v9.785h1.4v-6.575a.205.205,0,0,1,.174-.194.231.231,0,0,1,.25.108l2.5,4.7h1.073l2.549-4.742a.231.231,0,0,1,.25-.108.205.205,0,0,1,.173.194v6.619Z" transform="translate(-579.187 -128.074)" fill="#fff"/>
        </g>
        <g id="Group_102" data-name="Group 102" transform="translate(13.261)">
          <path id="Path_64" data-name="Path 64" d="M700.4,139.1c-2.543,0-4.261-1.372-4.261-4.575v-1.3c0-3.2,1.717-4.575,4.261-4.575,2.56,0,4.277,1.372,4.277,4.575v1.3C704.679,137.725,702.961,139.1,700.4,139.1Zm-2.345-4.575c0,2.2.826,3.084,2.345,3.084s2.362-.886,2.362-3.084v-1.3c0-2.2-.842-3.084-2.362-3.084s-2.345.886-2.345,3.084Z" transform="translate(-695.918 -128.45)" fill="#fff"/>
          <path id="Path_65" data-name="Path 65" d="M698.692,137.769c-2.891,0-4.483-1.7-4.483-4.774v-1.3c0-3.078,1.592-4.774,4.483-4.774s4.5,1.7,4.5,4.774V133C703.192,136.074,701.594,137.769,698.692,137.769Zm0-10.448c-2.642,0-4.038,1.513-4.038,4.376V133c0,2.863,1.4,4.376,4.038,4.376s4.054-1.513,4.054-4.376v-1.3C702.747,128.834,701.345,127.321,698.692,127.321Zm0,8.958c-1.728,0-2.568-1.074-2.568-3.283v-1.3c0-2.209.84-3.283,2.568-3.283s2.584,1.074,2.584,3.283V133C701.277,135.2,700.431,136.278,698.692,136.278Zm0-7.467c-1.468,0-2.122.89-2.122,2.885V133c0,2,.655,2.885,2.122,2.885.918,0,2.139-.3,2.139-2.885v-1.3C700.831,129.11,699.611,128.811,698.692,128.811Z" transform="translate(-694.209 -126.923)" fill="#fff"/>
        </g>
        <g id="Group_103" data-name="Group 103" transform="translate(24.837 0.133)">
          <path id="Path_66" data-name="Path 66" d="M805.073,129.8v6.05c0,3.011-1.734,4.265-4.261,4.265s-4.261-1.254-4.261-4.25V129.8h1.916v6.065c0,1.948.776,2.76,2.345,2.76s2.345-.812,2.345-2.76V129.8Z" transform="translate(-796.328 -129.601)" fill="#fff"/>
          <path id="Path_67" data-name="Path 67" d="M799.1,138.787c-2.891,0-4.483-1.58-4.483-4.449v-6.065a.212.212,0,0,1,.223-.2h1.916a.212.212,0,0,1,.223.2v6.065c0,1.795.635,2.561,2.122,2.561s2.122-.766,2.122-2.561v-6.065a.212.212,0,0,1,.223-.2h1.916a.212.212,0,0,1,.223.2v6.05C803.586,137.2,801.994,138.787,799.1,138.787Zm-4.038-10.315v5.866c0,2.65,1.4,4.051,4.038,4.051s4.038-1.406,4.038-4.066v-5.852h-1.47v5.866c0,2.018-.816,2.959-2.568,2.959s-2.568-.94-2.568-2.959v-5.866h-1.47Z" transform="translate(-794.619 -128.074)" fill="#fff"/>
        </g>
        <g id="Group_104" data-name="Group 104" transform="translate(36.859 0.133)">
          <path id="Path_68" data-name="Path 68" d="M909.021,129.8v10.183h-1.7l-4.64-6.921v6.921h-1.85V129.8h1.651l4.69,7.01V129.8Z" transform="translate(-900.607 -129.601)" fill="#fff"/>
          <path id="Path_69" data-name="Path 69" d="M907.313,138.654h-1.7a.229.229,0,0,1-.191-.1l-4.227-6.3v6.2a.212.212,0,0,1-.223.2h-1.85a.212.212,0,0,1-.223-.2V128.273a.212.212,0,0,1,.223-.2h1.651a.229.229,0,0,1,.191.1l4.276,6.391v-6.289a.212.212,0,0,1,.223-.2h1.85a.212.212,0,0,1,.223.2v10.183A.212.212,0,0,1,907.313,138.654Zm-1.575-.4h1.352v-9.785h-1.4v6.811a.2.2,0,0,1-.163.192.236.236,0,0,1-.25-.09l-4.625-6.913h-1.3v9.785h1.4v-6.722a.2.2,0,0,1,.163-.192.234.234,0,0,1,.25.089Z" transform="translate(-898.899 -128.074)" fill="#fff"/>
        </g>
        <g id="Group_105" data-name="Group 105" transform="translate(47.411 0.133)">
          <path id="Path_70" data-name="Path 70" d="M1000.83,129.8v1.491h-3.27v8.692h-1.916v-8.692h-3.286V129.8Z" transform="translate(-992.135 -129.601)" fill="#fff"/>
          <path id="Path_71" data-name="Path 71" d="M995.852,138.654h-1.916a.212.212,0,0,1-.223-.2v-8.493H990.65a.212.212,0,0,1-.223-.2v-1.49a.212.212,0,0,1,.223-.2h8.472a.212.212,0,0,1,.223.2v1.491a.212.212,0,0,1-.223.2h-3.047v8.493A.212.212,0,0,1,995.852,138.654Zm-1.693-.4h1.471v-8.493a.212.212,0,0,1,.223-.2H998.9v-1.093h-8.027v1.093h3.064a.212.212,0,0,1,.223.2v8.493Z" transform="translate(-990.427 -128.074)" fill="#fff"/>
        </g>
        <g id="Group_106" data-name="Group 106" transform="translate(56.46 0.133)">
          <path id="Path_72" data-name="Path 72" d="M1070.853,139.983l3.964-10.183h1.817l3.964,10.183h-2.031l-.776-2.11h-4.112l-.776,2.11Zm3.352-3.586h3.039l-1.519-4.117Z" transform="translate(-1070.63 -129.601)" fill="#fff"/>
          <path id="Path_73" data-name="Path 73" d="M1078.888,138.654h-2.031a.222.222,0,0,1-.212-.137l-.726-1.973h-3.79l-.726,1.973a.222.222,0,0,1-.211.137h-2.048a.232.232,0,0,1-.182-.084.182.182,0,0,1-.029-.181l3.964-10.183a.222.222,0,0,1,.21-.133h1.817a.222.222,0,0,1,.21.133l3.964,10.183a.182.182,0,0,1-.029.181A.232.232,0,0,1,1078.888,138.654Zm-1.87-.4h1.557l-3.809-9.785h-1.5l-3.809,9.785h1.573l.726-1.973a.222.222,0,0,1,.211-.137h4.112a.222.222,0,0,1,.211.137Zm-1.482-3.188H1072.5a.232.232,0,0,1-.18-.082.182.182,0,0,1-.031-.179l1.519-4.117a.222.222,0,0,1,.211-.137h0a.222.222,0,0,1,.211.137l1.519,4.117a.182.182,0,0,1-.031.179A.232.232,0,0,1,1075.536,135.068Zm-2.731-.4h2.423l-1.211-3.283Z" transform="translate(-1068.922 -128.074)" fill="#fff"/>
        </g>
        <g id="Group_107" data-name="Group 107" transform="translate(68.664 0.133)">
          <path id="Path_74" data-name="Path 74" d="M1178.621,139.983h-1.916V129.8h1.916Z" transform="translate(-1176.482 -129.601)" fill="#fff"/>
          <path id="Path_75" data-name="Path 75" d="M1176.912,138.654H1175a.212.212,0,0,1-.223-.2V128.273a.212.212,0,0,1,.223-.2h1.916a.212.212,0,0,1,.223.2v10.183A.212.212,0,0,1,1176.912,138.654Zm-1.693-.4h1.47v-9.785h-1.47Z" transform="translate(-1174.774 -128.074)" fill="#fff"/>
        </g>
        <g id="Group_108" data-name="Group 108" transform="translate(74.229 0.133)">
          <path id="Path_76" data-name="Path 76" d="M1233.167,129.8v10.183h-1.7l-4.641-6.921v6.921h-1.85V129.8h1.651l4.69,7.01V129.8Z" transform="translate(-1224.753 -129.601)" fill="#fff"/>
          <path id="Path_77" data-name="Path 77" d="M1231.459,138.654h-1.7a.229.229,0,0,1-.191-.1l-4.227-6.3v6.2a.212.212,0,0,1-.223.2h-1.85a.212.212,0,0,1-.223-.2V128.273a.212.212,0,0,1,.223-.2h1.651a.229.229,0,0,1,.191.1l4.276,6.391v-6.289a.212.212,0,0,1,.223-.2h1.85a.212.212,0,0,1,.223.2v10.183A.212.212,0,0,1,1231.459,138.654Zm-1.575-.4h1.352v-9.785h-1.4v6.811a.2.2,0,0,1-.163.192.236.236,0,0,1-.25-.09l-4.625-6.913h-1.3v9.785h1.4v-6.722a.2.2,0,0,1,.163-.192.234.234,0,0,1,.25.089Z" transform="translate(-1223.045 -128.074)" fill="#fff"/>
        </g>
        <g id="Group_109" data-name="Group 109" transform="translate(86.151 0.133)">
          <path id="Path_78" data-name="Path 78" d="M1329.352,135.954v4.029h-.958V129.8h3.468c2.626,0,4.145,1.151,4.145,3.084s-1.5,3.07-4.145,3.07Zm2.51-.8c2.2,0,3.187-.841,3.187-2.273s-.991-2.287-3.187-2.287h-2.51v4.56Z" transform="translate(-1328.171 -129.601)" fill="#fff"/>
          <path id="Path_79" data-name="Path 79" d="M1327.644,138.654h-.958a.212.212,0,0,1-.223-.2V128.273a.212.212,0,0,1,.223-.2h3.468c2.735,0,4.368,1.227,4.368,3.283s-1.633,3.268-4.368,3.268h-2.288v3.83A.212.212,0,0,1,1327.644,138.654Zm-.735-.4h.513v-3.83a.212.212,0,0,1,.223-.2h2.51c2.493,0,3.922-1.046,3.922-2.871s-1.43-2.885-3.922-2.885h-3.245Zm3.245-4.428h-2.51a.212.212,0,0,1-.223-.2v-4.56a.212.212,0,0,1,.223-.2h2.51c2.818,0,3.41,1.352,3.41,2.486S1332.972,133.829,1330.154,133.829Zm-2.287-.4h2.288c1.967,0,2.965-.7,2.965-2.074,0-1.405-.97-2.088-2.965-2.088h-2.288Z" transform="translate(-1326.463 -128.074)" fill="#fff"/>
        </g>
        <g id="Group_110" data-name="Group 110" transform="translate(94.623 0.133)">
          <path id="Path_80" data-name="Path 80" d="M1401.875,139.983l3.9-10.183h.892l3.9,10.183h-1.007l-.941-2.479h-4.789l-.925,2.479Zm2.246-3.276h4.195l-2.1-5.534Z" transform="translate(-1401.652 -129.601)" fill="#fff"/>
          <path id="Path_81" data-name="Path 81" d="M1408.853,138.654h-1.007a.222.222,0,0,1-.211-.135l-.89-2.344h-4.469l-.874,2.343a.222.222,0,0,1-.211.136h-1.024a.232.232,0,0,1-.181-.083.181.181,0,0,1-.029-.18l3.9-10.183a.222.222,0,0,1,.211-.135h.892a.222.222,0,0,1,.211.135l3.9,10.183a.181.181,0,0,1-.029.18A.233.233,0,0,1,1408.853,138.654Zm-.848-.4h.536l-3.745-9.785h-.574l-3.745,9.785h.552l.874-2.343a.222.222,0,0,1,.211-.136h4.789a.222.222,0,0,1,.211.135Zm-1.4-2.878h-4.195a.232.232,0,0,1-.181-.083.181.181,0,0,1-.03-.18l2.1-5.534a.232.232,0,0,1,.422,0l2.1,5.534a.182.182,0,0,1-.03.18A.232.232,0,0,1,1406.607,135.378Zm-3.884-.4h3.574l-1.787-4.715Z" transform="translate(-1399.944 -128.074)" fill="#fff"/>
        </g>
        <g id="Group_111" data-name="Group 111" transform="translate(105.258 0.044)">
          <path id="Path_82" data-name="Path 82" d="M1500.894,131.186a3.32,3.32,0,0,0-2.956-1.358c-1.569,0-2.609.576-2.609,1.83,0,1.461,1.3,1.83,2.956,2.155,2.147.413,3.567,1,3.567,2.922,0,1.3-1.024,2.656-3.749,2.656a4.678,4.678,0,0,1-3.98-1.668l.776-.487a3.759,3.759,0,0,0,3.2,1.358c2.031,0,2.791-.841,2.791-1.83,0-1.225-.793-1.815-2.94-2.184-2.13-.369-3.584-1.107-3.584-2.922,0-1.431,1.04-2.627,3.6-2.627a4.073,4.073,0,0,1,3.683,1.668Z" transform="translate(-1493.9 -128.833)" fill="#fff"/>
          <path id="Path_83" data-name="Path 83" d="M1496.394,138.064a4.918,4.918,0,0,1-4.164-1.755.186.186,0,0,1,.056-.275l.776-.487a.241.241,0,0,1,.3.039,3.545,3.545,0,0,0,3.03,1.283c1.656,0,2.568-.579,2.568-1.631,0-.959-.451-1.592-2.759-1.989-1.753-.3-3.764-.932-3.764-3.117,0-1.769,1.429-2.826,3.823-2.826a4.327,4.327,0,0,1,3.871,1.76.186.186,0,0,1-.059.268l-.76.487a.244.244,0,0,1-.169.034.226.226,0,0,1-.145-.084,3.064,3.064,0,0,0-2.772-1.27c-1.089,0-2.387.283-2.387,1.631,0,1.312,1.153,1.64,2.781,1.96,1.893.364,3.742.905,3.742,3.116a2.528,2.528,0,0,1-.922,1.96A4.636,4.636,0,0,1,1496.394,138.064Zm-3.668-1.819a4.507,4.507,0,0,0,3.668,1.421c2.6,0,3.526-1.269,3.526-2.457,0-1.744-1.192-2.3-3.391-2.727-1.714-.337-3.132-.746-3.132-2.349,0-1.289,1.032-2.029,2.832-2.029a3.519,3.519,0,0,1,3.009,1.278l.4-.258a3.9,3.9,0,0,0-3.379-1.419c-2.146,0-3.377.885-3.377,2.428,0,1.5,1.018,2.314,3.4,2.727,2.245.386,3.12,1.053,3.12,2.379,0,.61-.294,2.029-3.014,2.029a3.986,3.986,0,0,1-3.245-1.288Z" transform="translate(-1492.192 -127.307)" fill="#fff"/>
        </g>
        <g id="Group_112" data-name="Group 112" transform="translate(115.645 0.044)">
          <path id="Path_84" data-name="Path 84" d="M1590.989,131.186a3.321,3.321,0,0,0-2.956-1.358c-1.569,0-2.609.576-2.609,1.83,0,1.461,1.3,1.83,2.956,2.155,2.147.413,3.567,1,3.567,2.922,0,1.3-1.024,2.656-3.749,2.656a4.678,4.678,0,0,1-3.98-1.668l.776-.487a3.759,3.759,0,0,0,3.2,1.358c2.031,0,2.791-.841,2.791-1.83,0-1.225-.793-1.815-2.94-2.184-2.13-.369-3.583-1.107-3.583-2.922,0-1.431,1.04-2.627,3.6-2.627a4.073,4.073,0,0,1,3.683,1.668Z" transform="translate(-1583.995 -128.833)" fill="#fff"/>
          <path id="Path_85" data-name="Path 85" d="M1586.489,138.064a4.918,4.918,0,0,1-4.164-1.755.186.186,0,0,1,.056-.275l.776-.487a.241.241,0,0,1,.3.039,3.545,3.545,0,0,0,3.03,1.283c1.656,0,2.568-.579,2.568-1.631,0-.959-.451-1.592-2.759-1.989-1.753-.3-3.764-.932-3.764-3.117,0-1.769,1.429-2.826,3.823-2.826a4.327,4.327,0,0,1,3.871,1.76.186.186,0,0,1-.059.268l-.76.487a.244.244,0,0,1-.169.034.226.226,0,0,1-.145-.084,3.064,3.064,0,0,0-2.772-1.27c-1.089,0-2.386.283-2.386,1.631,0,1.312,1.153,1.64,2.781,1.96,1.893.364,3.742.905,3.742,3.116a2.528,2.528,0,0,1-.923,1.96A4.635,4.635,0,0,1,1586.489,138.064Zm-3.668-1.819a4.507,4.507,0,0,0,3.668,1.421c2.6,0,3.526-1.269,3.526-2.457,0-1.744-1.192-2.3-3.391-2.727-1.714-.337-3.132-.746-3.132-2.349,0-1.289,1.032-2.029,2.832-2.029a3.519,3.519,0,0,1,3.009,1.278l.4-.258a3.9,3.9,0,0,0-3.379-1.419c-2.146,0-3.377.885-3.377,2.428,0,1.5,1.018,2.314,3.4,2.727,2.245.386,3.12,1.053,3.12,2.379,0,.61-.294,2.029-3.013,2.029a3.986,3.986,0,0,1-3.245-1.288Z" transform="translate(-1582.287 -127.307)" fill="#fff"/>
        </g>
      </g>
    </g>
  </g>
</svg>
